<?xml version="1.0" encoding="UTF-8" standalone="no"?>
<!DOCTYPE svg PUBLIC "-//W3C//DTD SVG 1.1//EN" "http://www.w3.org/Graphics/SVG/1.1/DTD/svg11.dtd">
<svg xmlns="http://www.w3.org/2000/svg" version="1.1" viewBox="0 0 797 313">
<g stroke-width="2.00" fill="none" stroke-linecap="butt">
<path stroke="#ededec" vector-effect="non-scaling-stroke" d="
  M 657.96 188.50
  Q 656.26 187.86 656.81 186.52
  A 1.19 1.19 0.0 0 0 655.86 184.88
  L 649.71 184.08
  Q 649.26 184.02 649.03 183.63
  C 646.80 179.68 636.11 174.79 627.39 169.90
  Q 626.95 169.66 626.48 169.85
  L 623.71 171.00"
/>
<path stroke="#c6c6c5" vector-effect="non-scaling-stroke" d="
  M 650.96 204.25
  Q 649.94 205.09 649.27 206.38
  Q 649.00 206.90 648.52 206.58
  C 647.36 205.81 646.16 204.54 645.06 203.91
  Q 630.95 195.89 616.47 188.42"
/>
<path stroke="#81bcd2" vector-effect="non-scaling-stroke" d="
  M 588.73 209.08
  L 588.77 209.85
  A 0.96 0.96 0.0 0 0 589.73 210.75
  L 647.19 210.60"
/>
</g>
<path fill="#ffffff" d="
  M 657.96 188.50
  Q 656.26 187.86 656.81 186.52
  A 1.19 1.19 0.0 0 0 655.86 184.88
  L 649.71 184.08
  Q 649.26 184.02 649.03 183.63
  C 646.80 179.68 636.11 174.79 627.39 169.90
  Q 626.95 169.66 626.48 169.85
  L 623.71 171.00
  Q 628.26 144.45 610.70 126.27
  C 596.73 111.80 575.22 107.01 556.48 114.45
  Q 529.16 125.28 524.41 156.85
  Q 524.35 157.25 523.96 157.25
  L 487.25 157.25
  Q 486.70 157.25 486.73 156.71
  C 488.52 118.62 514.81 85.94 551.70 76.10
  C 604.74 61.96 657.30 98.90 662.24 153.74
  Q 663.84 171.45 657.96 188.50
  Z"
/>
<path fill="#ffffff" d="
  M 410.13 252.04
  L 372.12 251.91
  A 0.62 0.62 0.0 0 1 371.50 251.29
  L 371.50 110.37
  A 0.62 0.62 0.0 0 0 370.88 109.75
  L 320.62 109.75
  A 0.62 0.62 0.0 0 1 320.00 109.13
  L 320.00 76.62
  A 0.62 0.62 0.0 0 1 320.62 76.00
  L 461.85 76.00
  A 0.62 0.62 0.0 0 1 462.47 76.62
  L 462.51 109.13
  A 0.62 0.62 0.0 0 1 461.89 109.75
  L 411.37 109.76
  A 0.62 0.62 0.0 0 0 410.75 110.38
  L 410.75 251.42
  A 0.62 0.62 0.0 0 1 410.13 252.04
  Z"
/>
<path fill="#ffffff" d="
  M 171.86 252.08
  L 125.71 252.01
  A 0.32 0.32 0.0 0 1 125.43 251.54
  L 222.58 76.83
  A 0.32 0.32 0.0 0 1 223.14 76.83
  L 320.41 251.62
  A 0.32 0.32 0.0 0 1 320.13 252.10
  L 276.69 251.99
  A 0.32 0.32 0.0 0 1 276.41 251.83
  L 224.54 158.57
  A 0.32 0.32 0.0 0 0 223.98 158.57
  L 172.14 251.92
  A 0.32 0.32 0.0 0 1 171.86 252.08
  Z"
/>
<path fill="#50c6f3" d="
  M 588.73 209.08
  L 588.77 209.85
  A 0.96 0.96 0.0 0 0 589.73 210.75
  L 647.19 210.60
  C 649.99 210.82 669.95 212.00 670.96 210.71
  A 0.43 0.43 0.0 0 1 671.73 210.98
  L 671.76 248.23
  Q 671.76 248.75 671.24 248.75
  Q 626.48 248.74 581.76 248.76
  Q 568.56 248.77 561.81 247.75
  C 520.64 241.52 489.50 208.10 486.80 166.32
  A 1.64 1.63 -1.8 0 1 488.45 164.58
  L 523.84 164.81
  Q 524.36 164.82 524.51 165.33
  C 524.89 166.72 524.98 168.61 525.18 169.62
  Q 529.56 191.37 547.34 202.92
  Q 566.00 215.05 588.73 209.08
  Z"
/>
<path fill="#dadad9" d="
  M 657.96 188.50
  Q 655.25 196.72 650.96 204.25
  Q 649.94 205.09 649.27 206.38
  Q 649.00 206.90 648.52 206.58
  C 647.36 205.81 646.16 204.54 645.06 203.91
  Q 630.95 195.89 616.47 188.42
  Q 621.62 180.45 623.71 171.00
  L 626.48 169.85
  Q 626.95 169.66 627.39 169.90
  C 636.11 174.79 646.80 179.68 649.03 183.63
  Q 649.26 184.02 649.71 184.08
  L 655.86 184.88
  A 1.19 1.19 0.0 0 1 656.81 186.52
  Q 656.26 187.86 657.96 188.50
  Z"
/>
<path fill="#b1b1b1" d="
  M 616.47 188.42
  Q 630.95 195.89 645.06 203.91
  C 646.16 204.54 647.36 205.81 648.52 206.58
  Q 649.00 206.90 649.27 206.38
  Q 649.94 205.09 650.96 204.25
  L 647.19 210.60
  L 589.73 210.75
  A 0.96 0.96 0.0 0 1 588.77 209.85
  L 588.73 209.08
  Q 605.99 203.27 616.47 188.42
  Z"
/>
</svg>
